<svg xmlns="http://www.w3.org/2000/svg" viewBox="0 0 50 50" version="1.1">
	<path d="M 31 9.702 C 29.349 10.300, 23 16.058, 23 16.956 C 23 17.267, 24.191 18.805, 25.646 20.374 C 28.123 23.045, 28.356 23.109, 29.283 21.364 C 32.461 15.380, 36.579 13.616, 40.673 16.484 C 42.628 17.853, 42.921 17.769, 44.476 15.397 C 45.402 13.983, 46.011 12.716, 45.830 12.582 C 41.178 9.129, 35.578 8.042, 31 9.702 M 9.621 11.521 C 8.730 12.413, 8 13.615, 8 14.193 C 8 16.418, 19.658 37.552, 22.618 40.692 C 26.285 44.583, 26.874 44.673, 30.409 41.893 C 32.711 40.082, 42.691 22.263, 41.812 21.531 C 40.472 20.415, 36.819 18.994, 36.229 19.360 C 35.828 19.609, 33.969 22.799, 32.098 26.450 C 29.862 30.813, 28.174 32.987, 27.173 32.794 C 26.335 32.632, 23.050 27.550, 19.871 21.500 C 16.693 15.450, 13.451 10.365, 12.668 10.200 C 11.884 10.035, 10.513 10.630, 9.621 11.521" stroke="none" fill="#000000" fill-rule="evenodd"/>
</svg>